<?xml version="1.0" encoding="utf-8"?>
<!-- Generator: Adobe Illustrator 25.2.3, SVG Export Plug-In . SVG Version: 6.00 Build 0)  -->
<svg version="1.1" id="Layer_1" xmlns="http://www.w3.org/2000/svg" xmlns:xlink="http://www.w3.org/1999/xlink" x="0px" y="0px"
	 viewBox="0 0 263 185" style="enable-background:new 0 0 263 185;" xml:space="preserve">
<style type="text/css">
	.st0{fill:#FFFFFF;}
	.st1{fill:none;}
	.st2{enable-background:new    ;}
</style>
<g transform="translate(-20 -20)">
	<g transform="translate(20 20)">
		<path class="st0" d="M22.9,0h13.4v32.1L22.9,0z"/>
		<path class="st0" d="M13.5,0H0v32.1L13.5,0z"/>
		<path class="st0" d="M18.2,11.8l8.6,20.3h-5.6l-2.6-6.5h-6.3L18.2,11.8z"/>
		<path class="st0" d="M4.7,45c-0.3-1.3-0.7-3.3-0.9-4.5h0c-0.2,1.2-0.5,3-0.8,4.5H4.7z M2.6,46.9L2,49.7c0,0.1-0.1,0.1-0.1,0.1H0.1
			c-0.1,0-0.1,0-0.1-0.2l2.3-10.1c0.1-0.3,0.1-0.7,0.1-1c0-0.1,0-0.1,0.1-0.1c0,0,0,0,0,0H5c0.1,0,0.1,0,0.1,0.1l2.7,11.1
			c0,0.1,0,0.1-0.1,0.1H5.8c-0.1,0-0.1,0-0.1-0.1c0,0,0,0,0,0l-0.6-2.8L2.6,46.9z"/>
		<path class="st0" d="M12.4,42.8c-0.1,0-0.3-0.1-0.4-0.1c-1,0-1.7,0.9-1.7,2.7c0,1.9,0.7,2.7,1.7,2.7c0.1,0,0.3,0,0.4-0.1
			L12.4,42.8z M8.1,45.5c0-2.6,1.5-4.6,3.9-4.6h0.3v-3c0-0.1,0-0.1,0.1-0.1h1.9c0.1,0,0.1,0,0.1,0.1v10.2c0,0.4,0,0.8,0.1,1.2
			c0,0.1,0,0.1-0.1,0.1c-0.8,0.4-1.7,0.6-2.6,0.6C9.7,50,8.1,48.5,8.1,45.5z"/>
		<path class="st0" d="M17.7,45.4c0,1.6,0.4,2.7,1.2,2.7c0.8,0,1.1-0.9,1.1-2.7c0-1.7-0.3-2.7-1.1-2.7
			C18.1,42.8,17.7,43.6,17.7,45.4z M22,45.4c0,2.8-1.2,4.6-3.2,4.6c-2.3,0-3.2-2-3.2-4.6c0-2.6,1.2-4.5,3.3-4.5
			C20.8,40.9,22,42.6,22,45.4L22,45.4z"/>
		<path class="st0" d="M25.9,42.8c-0.2,0-0.4,0-0.6,0.1v5.2c0.1,0,0.2,0,0.4,0c0.8,0,1.7-0.8,1.8-3C27.4,43.4,26.7,42.8,25.9,42.8z
			 M25.1,37.8c0.1,0,0.1,0,0.1,0.1V41c0.3-0.1,0.6-0.1,1-0.1c1.8,0,3.2,1.4,3.2,4.2c0,3.2-1.8,4.9-4.1,4.9c-0.7,0-1.4-0.1-2.1-0.3
			c-0.1,0-0.1-0.1-0.1-0.1V37.9c0-0.1,0-0.1,0.1-0.1c0,0,0,0,0,0L25.1,37.8z"/>
		<path class="st0" d="M33.8,44.3c0.2,0,0.4,0,0.5,0c0-0.1,0-0.1,0-0.2c0-0.7-0.2-1.4-0.9-1.4c-0.7,0-1,0.7-1.1,1.6L33.8,44.3z
			 M32.3,45.9c0,1.4,0.5,2.2,1.9,2.2c0.5,0,0.9-0.1,1.3-0.3c0.1,0,0.1,0,0.1,0.1v1.5c0,0.1,0,0.2-0.1,0.2c-0.6,0.2-1.2,0.3-1.8,0.3
			c-2.6,0-3.6-1.9-3.6-4.4c0-2.7,1.2-4.7,3.2-4.7c2.2,0,2.8,1.9,2.8,3.5c0,0.4,0,0.9-0.1,1.3c0,0.1-0.1,0.1-0.2,0.1
			c-0.2,0-0.7,0.1-1.7,0.1L32.3,45.9z"/>
		<rect y="50" class="st1" width="66" height="30"/>
		<rect x="36" class="st1" width="30" height="80"/>
	</g>
	<g class="st2">
		<path class="st0" d="M33.7,112.4c0,0.2-0.1,0.3-0.2,0.4c-0.9,0.3-2.2,0.5-3.6,0.5c-5,0-9-3-9-8.7c0-5.3,3.6-8.9,9.4-8.9
			c1.6,0,2.7,0.1,3.4,0.4c0.1,0.1,0.2,0.2,0.2,0.3v2.8c0,0.2-0.1,0.2-0.2,0.2c-0.9-0.4-2.1-0.6-3.4-0.6c-3.5,0-5.6,2.2-5.6,5.5
			c0,4.1,3,5.6,5.7,5.6c1.3,0,2.2-0.1,3.2-0.4c0.1-0.1,0.2,0,0.2,0.1V112.4z"/>
		<path class="st0" d="M48,106.5c0,4.1-2.7,6.8-6.4,6.8c-4.4,0-6.4-3.4-6.4-6.7c0-3.7,2.5-6.7,6.5-6.7C45.8,99.8,48,103,48,106.5z
			 M38.8,106.5c0,2.3,1.1,3.7,2.8,3.7c1.5,0,2.7-1.3,2.7-3.7c0-2-0.8-3.7-2.8-3.7C40,102.8,38.8,104.2,38.8,106.5z"/>
		<path class="st0" d="M50.5,113c-0.2,0-0.2-0.1-0.2-0.2v-9.9c0-1-0.1-2.1-0.1-2.6c0-0.2,0.1-0.2,0.2-0.2h2.8c0.2,0,0.2,0.1,0.3,0.2
			c0.1,0.2,0.1,0.5,0.2,1c1.2-1,2.4-1.4,3.7-1.4c1.5,0,2.6,0.6,3.3,1.7c1.1-1,2.5-1.7,4.2-1.7c2.3,0,4.4,1.2,4.4,5.1v7.8
			c0,0.2-0.1,0.2-0.2,0.2H66c-0.2,0-0.3-0.1-0.3-0.2v-7.4c0-1.4-0.5-2.4-2-2.4c-0.9,0-1.7,0.4-2.2,0.8c0.1,0.3,0.1,1,0.1,1.5v7.5
			c0,0.1-0.1,0.2-0.2,0.2h-3.1c-0.2,0-0.3-0.1-0.3-0.2v-7.5c0-1.6-0.7-2.3-2-2.3c-0.8,0-1.4,0.2-2.1,0.7v9.1c0,0.1-0.1,0.2-0.2,0.2
			H50.5z"/>
		<path class="st0" d="M72.6,113c-0.2,0-0.2-0.1-0.2-0.2v-9.9c0-1-0.1-2.1-0.1-2.6c0-0.2,0.1-0.2,0.2-0.2h2.8c0.2,0,0.2,0.1,0.3,0.2
			c0.1,0.2,0.1,0.5,0.2,1c1.2-1,2.4-1.4,3.7-1.4c1.5,0,2.6,0.6,3.3,1.7c1.1-1,2.5-1.7,4.2-1.7c2.3,0,4.4,1.2,4.4,5.1v7.8
			c0,0.2-0.1,0.2-0.2,0.2h-3.1c-0.2,0-0.3-0.1-0.3-0.2v-7.4c0-1.4-0.5-2.4-2-2.4c-0.9,0-1.7,0.4-2.2,0.8c0.1,0.3,0.1,1,0.1,1.5v7.5
			c0,0.1-0.1,0.2-0.2,0.2h-3.1c-0.2,0-0.3-0.1-0.3-0.2v-7.5c0-1.6-0.7-2.3-2-2.3c-0.8,0-1.4,0.2-2.1,0.7v9.1c0,0.1-0.1,0.2-0.2,0.2
			H72.6z"/>
		<path class="st0" d="M97.5,107.5c0.1,1.5,1.2,2.7,3.7,2.7c1.2,0,2.2-0.2,3.2-0.6c0.1-0.1,0.2,0,0.2,0.1v2.5c0,0.2-0.1,0.3-0.2,0.3
			c-1,0.5-2.2,0.8-4,0.8c-4.9,0-6.6-3.4-6.6-6.6c0-3.6,2.2-6.9,6.3-6.9c3.9,0,5.5,3,5.5,5.6c0,0.8-0.1,1.5-0.1,1.7
			c0,0.1-0.1,0.2-0.2,0.2c-0.3,0.1-1.3,0.1-2.7,0.1H97.5z M100.9,105c0.8,0,1.2,0,1.3-0.1c0-0.1,0-0.2,0-0.2c0-0.6-0.5-2.1-2.2-2.1
			c-1.6,0-2.3,1.2-2.5,2.3H100.9z"/>
		<path class="st0" d="M107.9,103.1c0-0.9-0.1-2.2-0.1-2.8c0-0.1,0-0.2,0.2-0.2h2.7c0.2,0,0.3,0.1,0.3,0.2c0.1,0.2,0.2,0.5,0.2,0.9
			c1.1-0.9,2.3-1.3,3.7-1.3c2,0,4.4,1,4.4,5.2v7.7c0,0.2-0.1,0.2-0.2,0.2H116c-0.2,0-0.3-0.1-0.3-0.2v-7.4c0-1.6-0.7-2.4-2-2.4
			c-0.9,0-1.6,0.3-2.2,0.8v9c0,0.1-0.1,0.2-0.2,0.2h-3.1c-0.2,0-0.2-0.1-0.2-0.2V103.1z"/>
		<path class="st0" d="M128.8,112.6c0,0.2,0,0.3-0.2,0.3c-0.7,0.3-1.4,0.4-2.3,0.4c-2.3,0-3.6-1.1-3.6-3.7v-6.4h-1.6
			c-0.2,0-0.2-0.1-0.2-0.2v-2.5c0-0.2,0.1-0.2,0.2-0.2h1.6c0-0.9,0.1-2.4,0.3-3.1c0-0.1,0.1-0.2,0.2-0.2l3-0.4c0.1,0,0.2,0,0.2,0.2
			c-0.1,0.8-0.1,2.3-0.1,3.6h2.4c0.2,0,0.2,0.1,0.2,0.2v2.6c0,0.1-0.1,0.2-0.2,0.2h-2.4v5.6c0,1.1,0.3,1.7,1.4,1.7
			c0.3,0,0.6-0.1,0.9-0.1c0.1,0,0.2,0,0.2,0.2V112.6z"/>
		<path class="st0" d="M131,111.1c0-1.3,0.9-2.2,2.2-2.2c1.3,0,2.2,0.9,2.2,2.2c0,1.3-0.8,2.2-2.2,2.2
			C132,113.3,131,112.4,131,111.1z"/>
		<path class="st0" d="M155,112.8c0,0.2-0.1,0.2-0.3,0.2h-10.6c-0.2,0-0.2-0.1-0.2-0.2V96.2c0-0.2,0.1-0.2,0.2-0.2h10.3
			c0.2,0,0.3,0,0.3,0.2L155,99c0,0.1,0,0.2-0.2,0.2h-7.3v3.5h6.6c0.1,0,0.2,0.1,0.2,0.2v2.9c0,0.2-0.1,0.2-0.2,0.2h-6.6v3.8h7.7
			c0.2,0,0.2,0.1,0.2,0.2L155,112.8z"/>
		<path class="st0" d="M156.6,106.7c0-3.7,2.8-6.8,7.5-6.8c0.2,0,0.5,0,0.9,0.1v-5.1c0-0.1,0.1-0.2,0.2-0.2h3.3
			c0.1,0,0.2,0.1,0.2,0.2v15.4c0,0.6,0,1.4,0.1,1.9c0,0.1,0,0.2-0.2,0.2c-1.8,0.8-3.5,1-5.1,1C159.5,113.3,156.6,111.1,156.6,106.7z
			 M165,103c-0.3-0.1-0.6-0.1-1-0.1c-2,0-3.7,1.2-3.7,3.6c0,2.6,1.5,3.7,3.5,3.7c0.4,0,0.9,0,1.2-0.2V103z"/>
		<path class="st0" d="M171.4,96.7c0-1.2,0.9-2,2-2c1.2,0,2,0.8,2,2c0,1.2-0.8,2-2,2S171.4,97.9,171.4,96.7z M171.6,100.3
			c0-0.1,0.1-0.2,0.2-0.2h3.2c0.2,0,0.2,0.1,0.2,0.2v12.5c0,0.2,0,0.2-0.2,0.2h-3.1c-0.2,0-0.3-0.1-0.3-0.2V100.3z"/>
		<path class="st0" d="M185,112.6c0,0.2,0,0.3-0.2,0.3c-0.7,0.3-1.4,0.4-2.3,0.4c-2.3,0-3.6-1.1-3.6-3.7v-6.4h-1.6
			c-0.2,0-0.2-0.1-0.2-0.2v-2.5c0-0.2,0.1-0.2,0.2-0.2h1.6c0-0.9,0.1-2.4,0.3-3.1c0-0.1,0.1-0.2,0.2-0.2l3-0.4c0.1,0,0.2,0,0.2,0.2
			c-0.1,0.8-0.1,2.3-0.1,3.6h2.4c0.2,0,0.2,0.1,0.2,0.2v2.6c0,0.1-0.1,0.2-0.2,0.2h-2.4v5.6c0,1.1,0.3,1.7,1.4,1.7
			c0.3,0,0.6-0.1,0.9-0.1c0.1,0,0.2,0,0.2,0.2V112.6z"/>
		<path class="st0" d="M187.2,111.1c0-1.3,0.9-2.2,2.2-2.2c1.3,0,2.2,0.9,2.2,2.2c0,1.3-0.8,2.2-2.2,2.2
			C188.1,113.3,187.2,112.4,187.2,111.1z"/>
		<path class="st0" d="M211.1,112.8c0,0.2-0.1,0.2-0.3,0.2h-10.6c-0.2,0-0.2-0.1-0.2-0.2V96.2c0-0.2,0.1-0.2,0.2-0.2h10.3
			c0.2,0,0.3,0,0.3,0.2l0.3,2.8c0,0.1,0,0.2-0.2,0.2h-7.3v3.5h6.6c0.1,0,0.2,0.1,0.2,0.2v2.9c0,0.2-0.1,0.2-0.2,0.2h-6.6v3.8h7.7
			c0.2,0,0.2,0.1,0.2,0.2L211.1,112.8z"/>
		<path class="st0" d="M213.3,107.9c-0.1,0-0.2-0.1-0.2-0.2v-2.7c0-0.1,0.1-0.2,0.2-0.2h6.3c0.1,0,0.2,0,0.2,0.2v2.8
			c0,0.2-0.1,0.2-0.1,0.2H213.3z"/>
		<path class="st0" d="M226.7,102.7c-1.2,0-1.6,0.4-1.6,0.9c0,0.4,0.3,0.8,1.8,1.4c3.1,1.1,4.1,2.4,4.1,4.2c0,2.5-1.9,4.1-5.4,4.1
			c-1.6,0-3-0.3-3.8-0.7c-0.1-0.1-0.2-0.2-0.2-0.3v-2.8c0-0.2,0.1-0.2,0.2-0.2c1.2,0.8,2.7,1,3.8,1c1.2,0,1.8-0.3,1.8-0.9
			c0-0.5-0.4-0.9-2-1.4c-2.9-1.1-3.9-2.3-3.9-4.2c0-2,1.6-4,5.1-4c1.5,0,2.7,0.2,3.4,0.5c0.2,0.1,0.2,0.2,0.2,0.3v2.6
			c0,0.2-0.1,0.3-0.3,0.2C229.2,103,227.9,102.7,226.7,102.7z"/>
		<path class="st0" d="M233.1,96.7c0-1.2,0.9-2,2-2c1.2,0,2,0.8,2,2c0,1.2-0.8,2-2,2C233.8,98.7,233.1,97.9,233.1,96.7z
			 M233.2,100.3c0-0.1,0.1-0.2,0.2-0.2h3.2c0.2,0,0.2,0.1,0.2,0.2v12.5c0,0.2,0,0.2-0.2,0.2h-3.1c-0.2,0-0.3-0.1-0.3-0.2V100.3z"/>
		<path class="st0" d="M246.6,110c3.7,0.2,5.1,1.7,5.1,3.7c0,2.7-2.7,4.9-6.8,4.9c-4.3,0-6.2-2.2-6.2-4c0-0.8,0.7-1.9,2.4-3.3
			c-0.4-0.6-0.6-1.3-0.5-2c0-0.6,0.2-1.2,0.5-1.7c-1.1-0.7-1.8-1.7-1.8-3.4c0-2.5,2-4.4,5.3-4.4c1,0,1.9,0.1,2.5,0.2
			c0.2,0.1,0.4,0.1,0.6,0.1h3.6c0.1,0,0.2,0.1,0.2,0.2v2.4c0,0.1-0.1,0.2-0.2,0.2c-0.4,0-1.2-0.1-1.8-0.1c0.2,0.4,0.4,0.9,0.4,1.7
			c0,2.8-2.3,4.1-5.1,4.1c-0.3,0-0.6,0-0.9-0.1c-0.1,0.2-0.1,0.5-0.1,0.7c0,0.2,0.1,0.5,0.3,0.7L246.6,110z M242.9,112.9
			c-0.6,0.4-1,1.1-1,1.4c0,0.8,1.1,1.7,3.2,1.7c2.3,0,3.3-0.8,3.3-1.7c0-1-1.1-1.2-2.6-1.3L242.9,112.9z M242.6,104.2
			c0,1,0.6,1.8,1.8,1.8c1.1,0,1.8-0.6,1.8-1.7c0-1.1-0.5-1.9-1.8-1.9C243.3,102.4,242.6,103.1,242.6,104.2z"/>
		<path class="st0" d="M253.3,103.1c0-0.9-0.1-2.2-0.1-2.8c0-0.1,0-0.2,0.2-0.2h2.7c0.2,0,0.3,0.1,0.3,0.2c0.1,0.2,0.2,0.5,0.2,0.9
			c1.1-0.9,2.3-1.3,3.7-1.3c2,0,4.4,1,4.4,5.2v7.7c0,0.2-0.1,0.2-0.2,0.2h-3.1c-0.2,0-0.3-0.1-0.3-0.2v-7.4c0-1.6-0.7-2.4-2-2.4
			c-0.9,0-1.6,0.3-2.2,0.8v9c0,0.1-0.1,0.2-0.2,0.2h-3.1c-0.2,0-0.2-0.1-0.2-0.2V103.1z"/>
		<path class="st0" d="M267.2,111.1c0-1.3,0.9-2.2,2.2-2.2c1.3,0,2.2,0.9,2.2,2.2c0,1.3-0.8,2.2-2.2,2.2
			C268.1,113.3,267.2,112.4,267.2,111.1z"/>
	</g>
	<g class="st2">
		<path class="st0" d="M22.1,143c-0.2,0-0.2-0.1-0.2-0.2v-16.5c0-0.1,0-0.3,0.2-0.3c2.3-0.1,3.3-0.1,5.4-0.1c4.3,0,6.7,1.8,6.7,5.2
			c0,2.2-1.4,3.8-3.2,4.6c0.9,1.2,3.8,5.6,4.6,7c0.1,0.2,0.1,0.3-0.1,0.3h-3.8c-0.2,0-0.3-0.1-0.4-0.2c-0.8-1.1-2.4-3.9-3.5-5.7
			c-0.2-0.3-0.3-0.4-0.6-0.4h-1.9v6.1c0,0.1-0.1,0.2-0.2,0.2H22.1z M27.4,133.6c2,0,3.2-0.8,3.2-2.3c0-1.6-1.3-2.3-3.2-2.3
			c-0.9,0-1.6,0-2,0.1v4.5H27.4z"/>
		<path class="st0" d="M39.6,137.5c0.1,1.5,1.2,2.7,3.7,2.7c1.2,0,2.2-0.2,3.2-0.6c0.1-0.1,0.2,0,0.2,0.1v2.5c0,0.2-0.1,0.3-0.2,0.3
			c-1,0.5-2.2,0.8-4,0.8c-4.9,0-6.6-3.4-6.6-6.6c0-3.6,2.2-6.9,6.3-6.9c3.9,0,5.5,3,5.5,5.6c0,0.8-0.1,1.5-0.1,1.7
			c0,0.1-0.1,0.2-0.2,0.2c-0.3,0.1-1.3,0.1-2.7,0.1H39.6z M43,135c0.8,0,1.2,0,1.3-0.1c0-0.1,0-0.2,0-0.2c0-0.6-0.5-2.1-2.2-2.1
			c-1.6,0-2.3,1.2-2.5,2.3H43z"/>
		<path class="st0" d="M50,133.1c0-0.9-0.1-2.2-0.1-2.8c0-0.1,0-0.2,0.2-0.2h2.7c0.2,0,0.3,0.1,0.3,0.2c0.1,0.2,0.2,0.5,0.2,0.9
			c1.1-0.9,2.3-1.3,3.7-1.3c2,0,4.4,1,4.4,5.2v7.7c0,0.2-0.1,0.2-0.2,0.2h-3.1c-0.2,0-0.3-0.1-0.3-0.2v-7.4c0-1.6-0.7-2.4-2-2.4
			c-0.9,0-1.6,0.3-2.2,0.8v9c0,0.1-0.1,0.2-0.2,0.2h-3.1c-0.2,0-0.2-0.1-0.2-0.2V133.1z"/>
		<path class="st0" d="M67.5,137.5c0.1,1.5,1.2,2.7,3.7,2.7c1.2,0,2.2-0.2,3.2-0.6c0.1-0.1,0.2,0,0.2,0.1v2.5c0,0.2-0.1,0.3-0.2,0.3
			c-1,0.5-2.2,0.8-4,0.8c-4.9,0-6.6-3.4-6.6-6.6c0-3.6,2.2-6.9,6.3-6.9c3.9,0,5.5,3,5.5,5.6c0,0.8-0.1,1.5-0.1,1.7
			c0,0.1-0.1,0.2-0.2,0.2c-0.3,0.1-1.3,0.1-2.7,0.1H67.5z M70.9,135c0.8,0,1.2,0,1.3-0.1c0-0.1,0-0.2,0-0.2c0-0.6-0.5-2.1-2.2-2.1
			c-1.6,0-2.3,1.2-2.5,2.3H70.9z"/>
		<path class="st0" d="M88.7,143c-0.2,0-0.3-0.1-0.3-0.2c-1.3-5.3-1.7-7.7-2-9h0c-0.6,2.9-1.2,5-2.3,9c-0.1,0.2-0.1,0.2-0.3,0.2
			h-3.2c-0.3,0-0.3-0.1-0.4-0.2l-3.4-12.5c-0.1-0.1,0-0.2,0.2-0.2h3.3c0.2,0,0.2,0.1,0.2,0.2c1.4,5.6,1.7,8.1,1.9,9.2h0.1
			c0.2-0.9,0.6-3.4,2.1-9.2c0-0.2,0.1-0.2,0.2-0.2h3.4c0.1,0,0.2,0.1,0.2,0.2c1.4,5.7,1.7,8.3,1.9,9.3h0.1c0.4-1.7,0.8-4.5,2-9.3
			c0-0.1,0.1-0.2,0.2-0.2h3c0.1,0,0.2,0.1,0.2,0.2l-3.7,12.5c-0.1,0.2-0.1,0.2-0.3,0.2H88.7z"/>
		<path class="st0" d="M106.9,138.9l-1.2,3.8c-0.1,0.1-0.1,0.2-0.3,0.2h-3c-0.2,0-0.2-0.1-0.2-0.3l5.2-15c0.1-0.3,0.2-0.6,0.3-1.6
			c0-0.1,0.1-0.2,0.2-0.2h4.2c0.1,0,0.2,0,0.2,0.2l5.9,16.6c0.1,0.1,0,0.2-0.1,0.2h-3.4c-0.2,0-0.2-0.1-0.3-0.2l-1.3-3.9H106.9z
			 M111.9,135.7c-0.5-1.7-1.6-4.9-2.1-6.7h0c-0.4,1.7-1.4,4.6-2,6.7H111.9z"/>
		<path class="st0" d="M128.7,142.6c0,0.1,0,0.2-0.1,0.2c-0.8,0.3-1.9,0.4-2.9,0.4c-4.2,0-6.9-2.8-6.9-6.7c0-3.9,2.9-6.8,7.4-6.8
			c1.3,0,2,0.1,2.4,0.3c0.1,0.1,0.2,0.1,0.2,0.3l0,2.7c0,0.2-0.1,0.2-0.2,0.2c-0.5-0.2-1.2-0.3-2.2-0.3c-2.2,0-3.8,1.2-3.8,3.5
			c0,2.7,2,3.6,3.8,3.6c0.9,0,1.7-0.1,2.2-0.2c0.2-0.1,0.2,0,0.2,0.1V142.6z"/>
		<path class="st0" d="M133.7,130.1c0.2,0,0.3,0.1,0.3,0.2c0.1,0.3,0.3,0.9,0.3,1.5c0.9-1,2.3-2,4.1-2c0.2,0,0.2,0.1,0.2,0.2v3.2
			c0,0.1-0.1,0.2-0.2,0.2c-1.9-0.1-3.4,0.5-3.9,1.1l0,8.3c0,0.2-0.1,0.2-0.2,0.2h-3.1c-0.2,0-0.3-0.1-0.3-0.2v-9
			c0-1.1,0-2.6-0.1-3.5c0-0.1,0-0.2,0.2-0.2H133.7z"/>
		<path class="st0" d="M152.7,136.5c0,4.1-2.7,6.8-6.4,6.8c-4.4,0-6.4-3.4-6.4-6.7c0-3.7,2.5-6.7,6.5-6.7
			C150.5,129.8,152.7,133,152.7,136.5z M143.5,136.5c0,2.3,1.1,3.7,2.8,3.7c1.5,0,2.7-1.3,2.7-3.7c0-2-0.8-3.7-2.8-3.7
			C144.6,132.8,143.5,134.2,143.5,136.5z"/>
		<path class="st0" d="M158.3,124.6c0.2,0,0.3,0,0.3,0.2v5.3c0.7-0.2,1.4-0.3,2.2-0.3c3.8,0,6.2,2.7,6.2,6.2c0,4.9-3.8,7.3-7.8,7.3
			c-1.4,0-2.8-0.2-4.1-0.6c-0.1,0-0.2-0.2-0.2-0.3v-17.7c0-0.1,0.1-0.2,0.2-0.2H158.3z M160.1,132.9c-0.8,0-1.2,0.1-1.5,0.2v7
			c0.3,0.1,0.7,0.1,1,0.1c2,0,3.8-1.2,3.8-3.9C163.3,134,162,132.9,160.1,132.9z"/>
		<path class="st0" d="M179.5,140.1c0,0.7,0,1.2,0.1,1.8c0,0.1,0,0.1-0.1,0.1c-2.3,0.9-3.8,1.2-5.7,1.2c-2.9,0-5.3-1.3-5.3-4.3
			c0-2.8,2.4-4.2,5.9-4.2c0.7,0,1.3,0,1.5,0.1v-0.2c0-0.5-0.3-1.6-2.5-1.6c-1.3,0-2.4,0.3-3.4,0.7c-0.1,0.1-0.2,0-0.2-0.1v-2.6
			c0-0.1,0-0.2,0.2-0.3c1.1-0.5,2.6-0.8,4.1-0.8c3.7,0,5.4,2.3,5.4,5.3V140.1z M176,137.4c-0.4-0.1-0.8-0.1-1.3-0.1
			c-1.8,0-2.6,0.6-2.6,1.5c0,0.9,0.7,1.6,2.3,1.6c0.6,0,1.1-0.1,1.6-0.2V137.4z"/>
		<path class="st0" d="M188.9,142.6c0,0.2,0,0.3-0.2,0.3c-0.7,0.3-1.4,0.4-2.3,0.4c-2.3,0-3.6-1.1-3.6-3.7v-6.4h-1.6
			c-0.2,0-0.2-0.1-0.2-0.2v-2.5c0-0.2,0.1-0.2,0.2-0.2h1.6c0-0.9,0.1-2.4,0.3-3.1c0-0.1,0.1-0.2,0.2-0.2l3-0.4c0.1,0,0.2,0,0.2,0.2
			c-0.1,0.8-0.1,2.3-0.1,3.6h2.4c0.2,0,0.2,0.1,0.2,0.2v2.6c0,0.1-0.1,0.2-0.2,0.2h-2.4v5.6c0,1.1,0.3,1.7,1.4,1.7
			c0.3,0,0.6-0.1,0.9-0.1c0.1,0,0.2,0,0.2,0.2V142.6z"/>
		<path class="st0" d="M197.2,126.2c0-0.2,0-0.2,0.2-0.2c1.1,0,3.1-0.1,5.1-0.1c5.3,0,7.1,2.9,7.1,5.7c0,4.2-3.2,6-7.3,6
			c-0.7,0-0.9,0-1.5,0v5.1c0,0.1-0.1,0.2-0.2,0.2h-3.2c-0.1,0-0.2-0.1-0.2-0.2V126.2z M200.8,134.5c0.4,0,0.7,0,1.5,0
			c2.1,0,3.7-0.6,3.7-2.8c0-1.6-1.1-2.7-3.4-2.7c-0.8,0-1.5,0-1.8,0.1V134.5z"/>
		<path class="st0" d="M214.5,130.1c0.2,0,0.3,0.1,0.3,0.2c0.1,0.3,0.3,0.9,0.3,1.5c0.9-1,2.3-2,4.1-2c0.2,0,0.2,0.1,0.2,0.2v3.2
			c0,0.1-0.1,0.2-0.2,0.2c-1.9-0.1-3.4,0.5-3.9,1.1l0,8.3c0,0.2-0.1,0.2-0.2,0.2h-3.1c-0.2,0-0.3-0.1-0.3-0.2v-9
			c0-1.1,0-2.6-0.1-3.5c0-0.1,0-0.2,0.2-0.2H214.5z"/>
		<path class="st0" d="M233.4,136.5c0,4.1-2.7,6.8-6.4,6.8c-4.4,0-6.4-3.4-6.4-6.7c0-3.7,2.5-6.7,6.5-6.7
			C231.3,129.8,233.4,133,233.4,136.5z M224.3,136.5c0,2.3,1.1,3.7,2.8,3.7c1.5,0,2.7-1.3,2.7-3.7c0-2-0.8-3.7-2.8-3.7
			C225.4,132.8,224.3,134.2,224.3,136.5z"/>
		<path class="st0" d="M242,126.2c0-0.1,0-0.2,0.2-0.2c0.8,0,2.8-0.1,5.1-0.1c6.2,0,9.3,3.5,9.3,8.3c0,6.2-4.8,8.8-9.2,8.8
			c-1.7,0-4.3,0-5.1-0.1c-0.1,0-0.2-0.1-0.2-0.3V126.2z M245.6,139.9c0.5,0,0.9,0.1,1.5,0.1c3.4,0,5.6-2.1,5.6-5.7
			c0-3.5-2.2-5.2-5.6-5.2c-0.6,0-1,0-1.6,0V139.9z"/>
		<path class="st0" d="M271.3,142.4c0,0.2-0.1,0.3-0.2,0.4c-0.9,0.3-2.2,0.5-3.6,0.5c-5,0-9-3-9-8.7c0-5.3,3.6-8.9,9.4-8.9
			c1.6,0,2.7,0.1,3.4,0.4c0.1,0.1,0.2,0.2,0.2,0.3v2.8c0,0.2-0.1,0.2-0.2,0.2c-0.9-0.4-2.1-0.6-3.4-0.6c-3.5,0-5.6,2.2-5.6,5.5
			c0,4.1,3,5.6,5.7,5.6c1.3,0,2.2-0.1,3.2-0.4c0.1-0.1,0.2,0,0.2,0.1V142.4z"/>
		<path class="st0" d="M274,141.1c0-1.3,0.9-2.2,2.2-2.2c1.3,0,2.2,0.9,2.2,2.2c0,1.3-0.8,2.2-2.2,2.2
			C275,143.3,274,142.4,274,141.1z"/>
	</g>
	<g transform="translate(20 145)">
		<path class="st0" d="M18,26C9.2,26,2,33.2,2,42c0,4.2,1.7,8.3,4.7,11.3c3,3,7.1,4.7,11.3,4.7h58c8.8,0,16-7.2,16-16
			c0-4.2-1.7-8.3-4.7-11.3c-3-3-7.1-4.7-11.3-4.7H18 M18,24h58c9.9,0,18,8.1,18,18s-8.1,18-18,18H18C8.1,60,0,51.9,0,42
			S8.1,24,18,24z"/>
		<g class="st2">
			<path class="st0" d="M13.5,46.4c-0.1,0-0.1,0-0.1-0.1v-8.9c0-0.1,0-0.1,0.1-0.1c1.1,0,1.7,0,2.8,0c2.2,0,3.6,1,3.6,2.8
				c0,1.2-0.8,2.1-1.8,2.5c0.5,0.6,2.1,3.2,2.5,3.9c0,0.1,0.1,0.2,0,0.2h-1.8c-0.1,0-0.2,0-0.2-0.1c-0.4-0.6-1.4-2.2-2-3.2
				c-0.1-0.2-0.2-0.2-0.3-0.2H15v3.4c0,0.1,0,0.1-0.1,0.1H13.5z M16.2,41.4c1.1,0,1.9-0.5,1.9-1.4c0-0.9-0.7-1.4-1.9-1.4
				c-0.5,0-0.9,0-1.1,0v2.8H16.2z"/>
			<path class="st0" d="M22.5,43.3c0,1,0.7,1.8,2.1,1.8c0.6,0,1.2-0.1,1.7-0.3c0,0,0.1,0,0.1,0.1v1.2c0,0.1,0,0.1-0.1,0.2
				c-0.5,0.3-1.1,0.4-2.1,0.4c-2.5,0-3.5-1.8-3.5-3.5c0-1.9,1.2-3.7,3.3-3.7c2.1,0,2.9,1.6,2.9,3c0,0.4,0,0.7-0.1,0.9
				c0,0.1,0,0.1-0.1,0.1c-0.2,0-0.8,0.1-1.4,0.1H22.5z M24.6,42.1c0.5,0,0.7,0,0.8,0c0,0,0-0.1,0-0.1c0-0.4-0.3-1.3-1.3-1.3
				c-1,0-1.4,0.7-1.5,1.4H24.6z"/>
			<path class="st0" d="M28.3,41.1c0-0.5,0-1.2-0.1-1.5c0-0.1,0-0.1,0.1-0.1h1.3c0.1,0,0.1,0,0.2,0.1c0,0.1,0.1,0.3,0.1,0.5
				c0.6-0.5,1.3-0.8,2-0.8c1.1,0,2.3,0.5,2.3,2.8v4.1c0,0.1,0,0.1-0.1,0.1h-1.5c-0.1,0-0.1,0-0.1-0.1v-4c0-0.9-0.4-1.5-1.2-1.5
				c-0.6,0-1,0.2-1.4,0.6v4.9c0,0.1,0,0.1-0.1,0.1h-1.5c-0.1,0-0.1,0-0.1-0.1V41.1z"/>
			<path class="st0" d="M37.3,43.3c0,1,0.7,1.8,2.1,1.8c0.6,0,1.2-0.1,1.7-0.3c0,0,0.1,0,0.1,0.1v1.2c0,0.1,0,0.1-0.1,0.2
				c-0.5,0.3-1.1,0.4-2.1,0.4c-2.5,0-3.5-1.8-3.5-3.5c0-1.9,1.2-3.7,3.3-3.7c2.1,0,2.9,1.6,2.9,3c0,0.4,0,0.7-0.1,0.9
				c0,0.1,0,0.1-0.1,0.1c-0.2,0-0.8,0.1-1.4,0.1H37.3z M39.4,42.1c0.5,0,0.7,0,0.8,0c0,0,0-0.1,0-0.1c0-0.4-0.3-1.3-1.3-1.3
				c-1,0-1.4,0.7-1.5,1.4H39.4z"/>
			<path class="st0" d="M48.8,46.4c-0.1,0-0.1,0-0.2-0.1c-0.8-3.1-1.1-4.4-1.2-5.1h0c-0.3,1.4-0.7,2.7-1.3,5.1
				c0,0.1-0.1,0.1-0.2,0.1h-1.5c-0.1,0-0.2,0-0.2-0.1l-1.8-6.7c0-0.1,0-0.1,0.1-0.1h1.5c0.1,0,0.1,0,0.1,0.1
				c0.8,3.3,1.1,4.6,1.1,5.2h0c0.1-0.5,0.4-1.8,1.3-5.2c0-0.1,0-0.1,0.1-0.1h1.6c0.1,0,0.1,0,0.1,0.1c0.9,3.4,1.1,4.7,1.2,5.2h0
				c0.2-0.8,0.4-2.2,1.2-5.2c0-0.1,0.1-0.1,0.1-0.1h1.4c0.1,0,0.1,0,0.1,0.1l-2,6.7c0,0.1-0.1,0.1-0.2,0.1H48.8z"/>
			<path class="st0" d="M56.8,41.1c0-0.5,0-1.2-0.1-1.5c0-0.1,0-0.1,0.1-0.1h1.3c0.1,0,0.1,0,0.2,0.1c0,0.1,0.1,0.3,0.1,0.5
				c0.6-0.5,1.3-0.8,2-0.8c1.1,0,2.3,0.5,2.3,2.8v4.1c0,0.1,0,0.1-0.1,0.1h-1.5c-0.1,0-0.1,0-0.1-0.1v-4c0-0.9-0.4-1.5-1.2-1.5
				c-0.6,0-1,0.2-1.4,0.6v4.9c0,0.1,0,0.1-0.1,0.1h-1.5c-0.1,0-0.1,0-0.1-0.1V41.1z"/>
			<path class="st0" d="M70.8,42.9c0,2.2-1.4,3.6-3.4,3.6c-2.3,0-3.4-1.8-3.4-3.6c0-2,1.3-3.6,3.4-3.6
				C69.6,39.3,70.8,40.9,70.8,42.9z M65.8,42.9c0,1.3,0.6,2.2,1.7,2.2c0.9,0,1.6-0.7,1.6-2.2c0-1.2-0.5-2.2-1.7-2.2
				C66.4,40.7,65.8,41.5,65.8,42.9z"/>
			<path class="st0" d="M77.9,46.4c-0.1,0-0.1,0-0.2-0.1c-0.8-3.1-1.1-4.4-1.2-5.1h0c-0.3,1.4-0.7,2.7-1.3,5.1
				c0,0.1-0.1,0.1-0.2,0.1h-1.5c-0.1,0-0.2,0-0.2-0.1l-1.8-6.7c0-0.1,0-0.1,0.1-0.1h1.5c0.1,0,0.1,0,0.1,0.1
				c0.8,3.3,1.1,4.6,1.1,5.2h0c0.1-0.5,0.4-1.8,1.3-5.2c0-0.1,0-0.1,0.1-0.1h1.6c0.1,0,0.1,0,0.1,0.1c0.9,3.4,1.1,4.7,1.2,5.2h0
				c0.2-0.8,0.4-2.2,1.2-5.2c0-0.1,0.1-0.1,0.1-0.1h1.4c0.1,0,0.1,0,0.1,0.1l-2,6.7c0,0.1-0.1,0.1-0.2,0.1H77.9z"/>
		</g>
		<rect class="st1" width="124" height="24"/>
		<rect x="94" class="st1" width="30" height="60"/>
	</g>
</g>
</svg>
